<svg width="1200" height="1000" viewBox="0 0 1200 1000" fill="none" xmlns="http://www.w3.org/2000/svg" xmlns:c2pa="http://c2pa.org/manifest"><metadata><c2pa:manifest>AAAWgmp1bWIAAAAeanVtZGMycGEAEQAQgAAAqgA4m3EDYzJwYQAAABZcanVtYgAAAEdqdW1kYzJtYQARABCAAACqADibcQN1cm46YzJwYToxYzA1MWI2NC05Y2E0LTQwMzItYTAzNi1jNzE0ZWU3N2MxMzYAAAADl2p1bWIAAAApanVtZGMyYXMAEQAQgAAAqgA4m3EDYzJwYS5hc3NlcnRpb25zAAAAALxqdW1iAAAARGp1bWRjYm9yABEAEIAAAKoAOJtxE2MycGEuaW5ncmVkaWVudC52MwAAAAAYYzJzaDIGT/qw7GO7BuGUL40G96cAAABwY2JvcqNpZGM6Zm9ybWF0bWltYWdlL3N2Zyt4bWxqaW5zdGFuY2VJRHgseG1wOmlpZDphNGZhNTFjYy03YTVlLTQ4MTItYmJkMS1lYzNhZmM5ZDg3MWNscmVsYXRpb25zaGlwaHBhcmVudE9mAAAB4mp1bWIAAABBanVtZGNib3IAEQAQgAAAqgA4m3ETYzJwYS5hY3Rpb25zLnYyAAAAABhjMnNoJmK7Ip6qzRh0og2DAFQpzgAAAZljYm9yomdhY3Rpb25zgqJmYWN0aW9ua2MycGEub3BlbmVkanBhcmFtZXRlcnOha2luZ3JlZGllbnRzgaJjdXJseC1zZWxmI2p1bWJmPWMycGEuYXNzZXJ0aW9ucy9jMnBhLmluZ3JlZGllbnQudjNkaGFzaFggQlusR70Zf7vdGUa/f8ko4CxwCIWi88G5Kety+0P5UfSkZmFjdGlvbngdY29tLmFudGhyb3BpYy5jbGF1ZGUucHJvdmlkZWRqcGFyYW1ldGVyc6F4H2NvbS5hbnRocm9waWMub3JpZ2luLWNvbmZpZGVuY2VndW5rbm93bmtkZXNjcmlwdGlvbnhmQ2xhdWRlIHByb3ZpZGVkIHRoaXMgZmlsZSBhdCB0aGUgcmVxdWVzdCBvZiBhIHVzZXIgYW5kIG1heSBoYXZlIGNyZWF0ZWQgb3IgbW9kaWZpZWQgdGhlIGZpbGUgY29udGVudHMubXNvZnR3YXJlQWdlbnShZG5hbWVmQ2xhdWRlcmFsbEFjdGlvbnNJbmNsdWRlZPUAAADIanVtYgAAAEBqdW1kY2JvcgARABCAAACqADibcRNjMnBhLmhhc2guZGF0YQAAAAAYYzJzaCpTkhBYkd82Sczt6hOLarMAAACAY2JvcqVjYWxnZnNoYTI1NmNwYWRNAAAAAAAAAAAAAAAAAGRoYXNoWCBFKmlsXqtO1g25KLAu5e/Z/Auf+krZM2dL7nb1GbNT3WRuYW1lbmp1bWJmIG1hbmlmZXN0amV4Y2x1c2lvbnOBomVzdGFydBimZmxlbmd0aBkeBAAAAj5qdW1iAAAAJ2p1bWRjMmNsABEAEIAAAKoAOJtxA2MycGEuY2xhaW0udjIAAAACD2Nib3KlY2FsZ2ZzaGEyNTZpc2lnbmF0dXJleE1zZWxmI2p1bWJmPS9jMnBhL3VybjpjMnBhOjFjMDUxYjY0LTljYTQtNDAzMi1hMDM2LWM3MTRlZTc3YzEzNi9jMnBhLnNpZ25hdHVyZWppbnN0YW5jZUlEeCx4bXA6aWlkOmY4NDVkODhjLWZmMWYtNGQ0ZC05MDYyLTViNmQzZTM5YmZlYnJjcmVhdGVkX2Fzc2VydGlvbnODomN1cmx4LXNlbGYjanVtYmY9YzJwYS5hc3NlcnRpb25zL2MycGEuaW5ncmVkaWVudC52M2RoYXNoWCBCW6xHvRl/u90ZRr9/ySjgLHAIhaLzwbkp63L7Q/lR9KJjdXJseCpzZWxmI2p1bWJmPWMycGEuYXNzZXJ0aW9ucy9jMnBhLmFjdGlvbnMudjJkaGFzaFggRaeZUFD+8IKg9+Waj/mWqH9V1fp0l8SSHA94a6LsILqiY3VybHgpc2VsZiNqdW1iZj1jMnBhLmFzc2VydGlvbnMvYzJwYS5oYXNoLmRhdGFkaGFzaFggiJvnSFZXVeSiDCwz0v0LrN7h37b+xLxRXmIFHUjq50R0Y2xhaW1fZ2VuZXJhdG9yX2luZm+jZG5hbWVvQW50aHJvcGljIEZpbGVzZ3ZlcnNpb25lMS4wLjBrc3BlY1ZlcnNpb25lMi40LjAAABA4anVtYgAAAChqdW1kYzJjcwARABCAAACqADibcQNjMnBhLnNpZ25hdHVyZQAAABAIY2JvctKEWQISogEmGCFZAgowggIGMIIBjaADAgECAhRA5aAK7sI50L64g/oGQgU9Z1UTADAKBggqhkjOPQQDAzBJMRcwFQYDVQQKEw5BbnRocm9waWMsIFBCQzEuMCwGA1UEAxMlQW50aHJvcGljIENvbnRlbnQgQ3JlZGVudGlhbHMgUm9vdCBDQTAeFw0yNjA4MDcxODQzNTZaFw0yODA4MDYxOTQzNTZaMEQxFzAVBgNVBAoTDkFudGhyb3BpYywgUEJDMSkwJwYDVQQDEyBBbnRocm9waWMgQ2xhdWRlIENvbnRlbnQgU2lnbmluZzBZMBMGByqGSM49AgEGCCqGSM49AwEHA0IABJh6CmvLUBgFFNU0vUKlOVtE6djd17L5SuwX0LemFisBM3dkd/3cyjxFA3Qo5S46fX0/ihY0VZ7mfb9KF703t5OjWDBWMA4GA1UdDwEB/wQEAwIHgDAVBgNVHSUEDjAMBgorBgEEAYPoXgIBMAwGA1UdEwEB/wQCMAAwHwYDVR0jBBgwFoAUzlHiBIFOZFsj+OPEz5o+nMHXXMIwCgYIKoZIzj0EAwMDZwAwZAIwMXMdFJ4BetLLVY7ORuE9noqbbAZOZn/aArXyTwFAZfKrPzxF2vPoJNf1+UCdg1XGAjBwX1zd9WGqYkqmL5SFqw1QySjr1zJfpJM9+1rdDwSPLMOPOjKuiXjoU/pUUeG9RwmhY3BhZFkNngAAAAAAAAAAAAAAAAAAAAAAAAAAAAAAAAAAAAAAAAAAAAAAAAAAAAAAAAAAAAAAAAAAAAAAAAAAAAAAAAAAAAAAAAAAAAAAAAAAAAAAAAAAAAAAAAAAAAAAAAAAAAAAAAAAAAAAAAAAAAAAAAAAAAAAAAAAAAAAAAAAAAAAAAAAAAAAAAAAAAAAAAAAAAAAAAAAAAAAAAAAAAAAAAAAAAAAAAAAAAAAAAAAAAAAAAAAAAAAAAAAAAAAAAAAAAAAAAAAAAAAAAAAAAAAAAAAAAAAAAAAAAAAAAAAAAAAAAAAAAAAAAAAAAAAAAAAAAAAAAAAAAAAAAAAAAAAAAAAAAAAAAAAAAAAAAAAAAAAAAAAAAAAAAAAAAAAAAAAAAAAAAAAAAAAAAAAAAAAAAAAAAAAAAAAAAAAAAAAAAAAAAAAAAAAAAAAAAAAAAAAAAAAAAAAAAAAAAAAAAAAAAAAAAAAAAAAAAAAAAAAAAAAAAAAAAAAAAAAAAAAAAAAAAAAAAAAAAAAAAAAAAAAAAAAAAAAAAAAAAAAAAAAAAAAAAAAAAAAAAAAAAAAAAAAAAAAAAAAAAAAAAAAAAAAAAAAAAAAAAAAAAAAAAAAAAAAAAAAAAAAAAAAAAAAAAAAAAAAAAAAAAAAAAAAAAAAAAAAAAAAAAAAAAAAAAAAAAAAAAAAAAAAAAAAAAAAAAAAAAAAAAAAAAAAAAAAAAAAAAAAAAAAAAAAAAAAAAAAAAAAAAAAAAAAAAAAAAAAAAAAAAAAAAAAAAAAAAAAAAAAAAAAAAAAAAAAAAAAAAAAAAAAAAAAAAAAAAAAAAAAAAAAAAAAAAAAAAAAAAAAAAAAAAAAAAAAAAAAAAAAAAAAAAAAAAAAAAAAAAAAAAAAAAAAAAAAAAAAAAAAAAAAAAAAAAAAAAAAAAAAAAAAAAAAAAAAAAAAAAAAAAAAAAAAAAAAAAAAAAAAAAAAAAAAAAAAAAAAAAAAAAAAAAAAAAAAAAAAAAAAAAAAAAAAAAAAAAAAAAAAAAAAAAAAAAAAAAAAAAAAAAAAAAAAAAAAAAAAAAAAAAAAAAAAAAAAAAAAAAAAAAAAAAAAAAAAAAAAAAAAAAAAAAAAAAAAAAAAAAAAAAAAAAAAAAAAAAAAAAAAAAAAAAAAAAAAAAAAAAAAAAAAAAAAAAAAAAAAAAAAAAAAAAAAAAAAAAAAAAAAAAAAAAAAAAAAAAAAAAAAAAAAAAAAAAAAAAAAAAAAAAAAAAAAAAAAAAAAAAAAAAAAAAAAAAAAAAAAAAAAAAAAAAAAAAAAAAAAAAAAAAAAAAAAAAAAAAAAAAAAAAAAAAAAAAAAAAAAAAAAAAAAAAAAAAAAAAAAAAAAAAAAAAAAAAAAAAAAAAAAAAAAAAAAAAAAAAAAAAAAAAAAAAAAAAAAAAAAAAAAAAAAAAAAAAAAAAAAAAAAAAAAAAAAAAAAAAAAAAAAAAAAAAAAAAAAAAAAAAAAAAAAAAAAAAAAAAAAAAAAAAAAAAAAAAAAAAAAAAAAAAAAAAAAAAAAAAAAAAAAAAAAAAAAAAAAAAAAAAAAAAAAAAAAAAAAAAAAAAAAAAAAAAAAAAAAAAAAAAAAAAAAAAAAAAAAAAAAAAAAAAAAAAAAAAAAAAAAAAAAAAAAAAAAAAAAAAAAAAAAAAAAAAAAAAAAAAAAAAAAAAAAAAAAAAAAAAAAAAAAAAAAAAAAAAAAAAAAAAAAAAAAAAAAAAAAAAAAAAAAAAAAAAAAAAAAAAAAAAAAAAAAAAAAAAAAAAAAAAAAAAAAAAAAAAAAAAAAAAAAAAAAAAAAAAAAAAAAAAAAAAAAAAAAAAAAAAAAAAAAAAAAAAAAAAAAAAAAAAAAAAAAAAAAAAAAAAAAAAAAAAAAAAAAAAAAAAAAAAAAAAAAAAAAAAAAAAAAAAAAAAAAAAAAAAAAAAAAAAAAAAAAAAAAAAAAAAAAAAAAAAAAAAAAAAAAAAAAAAAAAAAAAAAAAAAAAAAAAAAAAAAAAAAAAAAAAAAAAAAAAAAAAAAAAAAAAAAAAAAAAAAAAAAAAAAAAAAAAAAAAAAAAAAAAAAAAAAAAAAAAAAAAAAAAAAAAAAAAAAAAAAAAAAAAAAAAAAAAAAAAAAAAAAAAAAAAAAAAAAAAAAAAAAAAAAAAAAAAAAAAAAAAAAAAAAAAAAAAAAAAAAAAAAAAAAAAAAAAAAAAAAAAAAAAAAAAAAAAAAAAAAAAAAAAAAAAAAAAAAAAAAAAAAAAAAAAAAAAAAAAAAAAAAAAAAAAAAAAAAAAAAAAAAAAAAAAAAAAAAAAAAAAAAAAAAAAAAAAAAAAAAAAAAAAAAAAAAAAAAAAAAAAAAAAAAAAAAAAAAAAAAAAAAAAAAAAAAAAAAAAAAAAAAAAAAAAAAAAAAAAAAAAAAAAAAAAAAAAAAAAAAAAAAAAAAAAAAAAAAAAAAAAAAAAAAAAAAAAAAAAAAAAAAAAAAAAAAAAAAAAAAAAAAAAAAAAAAAAAAAAAAAAAAAAAAAAAAAAAAAAAAAAAAAAAAAAAAAAAAAAAAAAAAAAAAAAAAAAAAAAAAAAAAAAAAAAAAAAAAAAAAAAAAAAAAAAAAAAAAAAAAAAAAAAAAAAAAAAAAAAAAAAAAAAAAAAAAAAAAAAAAAAAAAAAAAAAAAAAAAAAAAAAAAAAAAAAAAAAAAAAAAAAAAAAAAAAAAAAAAAAAAAAAAAAAAAAAAAAAAAAAAAAAAAAAAAAAAAAAAAAAAAAAAAAAAAAAAAAAAAAAAAAAAAAAAAAAAAAAAAAAAAAAAAAAAAAAAAAAAAAAAAAAAAAAAAAAAAAAAAAAAAAAAAAAAAAAAAAAAAAAAAAAAAAAAAAAAAAAAAAAAAAAAAAAAAAAAAAAAAAAAAAAAAAAAAAAAAAAAAAAAAAAAAAAAAAAAAAAAAAAAAAAAAAAAAAAAAAAAAAAAAAAAAAAAAAAAAAAAAAAAAAAAAAAAAAAAAAAAAAAAAAAAAAAAAAAAAAAAAAAAAAAAAAAAAAAAAAAAAAAAAAAAAAAAAAAAAAAAAAAAAAAAAAAAAAAAAAAAAAAAAAAAAAAAAAAAAAAAAAAAAAAAAAAAAAAAAAAAAAAAAAAAAAAAAAAAAAAAAAAAAAAAAAAAAAAAAAAAAAAAAAAAAAAAAAAAAAAAAAAAAAAAAAAAAAAAAAAAAAAAAAAAAAAAAAAAAAAAAAAAAAAAAAAAAAAAAAAAAAAAAAAAAAAAAAAAAAAAAAAAAAAAAAAAAAAAAAAAAAAAAAAAAAAAAAAAAAAAAAAAAAAAAAAAAAAAAAAAAAAAAAAAAAAAAAAAAAAAAAAAAAAAAAAAAAAAAAAAAAAAAAAAAAAAAAAAAAAAAAAAAAAAAAAAAAAAAAAAAAAAAAAAAAAAAAAAAAAAAAAAAAAAAAAAAAAAAAAAAAAAAAAAAAAAAAAAAAAAAAAAAAAAAAAAAAAAAAAAAAAAAAAAAAAAAAAAAAAAAAAAAAAAAAAAAAAAAAAAAAAAAAAAAAAAAAAAAAAAAAAAAAAAAAAAAAAAAAAAAAAAAAAAAAAAAAAAAAAAAAAAAAAAAAAAAAAAAAAAAAAAAAAAAAAAAAAAAAAAAAAAAAAAAAAAAAAAAAAAAAAAAAAAAAAAAAAAAAAAAAAAAAAAAAAAAAAAAAAAAAAAAAAAAAAAAAAAAAAAAAAAAAAAAAAAAAAAAAAAAAAAAAAAAAAAAAAAAAAAAAAAAAAAAAAAAAAAAAAAAAAAAAAAAAAAAAAAAAAAAAAAAAAAAAAAAAAAAAAAAAAAAAAAAAAAAAAAAAAAAAAAAAAAAAAAAAAAAAAAAAAAAAAAAAAAAAAAAAAAAAAAAAAAAAAAAAAAAAAAAAAAAAAAAAAAAAAAAAAAAAAAAAAAAAAAAAAAAAAAAAAAAAAAAAAAAAAAAAAAAAAAAAAAAAAAAAAAAAAAAAAAAAAAAAAAAAAAAAAAAAAAAAAAAAAAAAAAAAAAAAAAAAAAAAAAAAAAAAAAAAAAAAAAAAAAAAAAAAAAAAAAAAAAAAAAAAAAAAAAAAAAAAAAAAAAAAAAAAAAAAAAAAAAAAAAAAAAAAAAAAAAAAAAAAAAAAAAAAAAAAAAAAAAAAAAAAAAAAAAAAAAAAAAAAAAAAAAAAAAAAAAAAAAAAAAAAAAAAAAAAAAAAAAAAAAAAAAAAAAAAAAAAAAAAAAAAAAAAAAAAAAAAAAAAAAAAAAAAAAAAAAAAAAAAAAAAAAAAAAAAAAAAAAAAAAAAAAAAAAAAAAAAAAAAAAAAAAAAAAAAAAAAAAAAAAAAAAAAAAAAAAAAAAAAAAAAAAAAAAAAAAAAAAAAAAAAAAAAAAAAAAAAAAAAAAAAAAAAAAAAAAAAAAAAAAAAAAAAAAAAAAAAAAAAAAAAAAAAAAAAAAAAAAAAAAAAAAAAAAAAAAAAAAAAAAAAAAAAAAAAAAAAAAAAAAAAAAAAAAAAAAAAAAAAAAAAAAAAAAAAAAAAAAAAAAAAAAAAAAAAAAAAAAAAAAAAAAAAAAAAAAAAAAAAAAAAAAAAAAAAAAAAAAAAAAAAAAAAAAAAAAAAAAAAAAAAAAAAAAAAAAAAAAAAAAAAAAAAAAAAAAAAAAAAAAAAAAAAAAAAAAAAAAAAAAAAAAAAAAAAAAAPZYQK6UomLob7fs/DByJEovyjOCcLDl1Nhk2KOmnUYrTJJFzL0y6I+LNQNmV9446+ort1UYeUh17irX10dRfzbo2T4=</c2pa:manifest></metadata><defs><radialGradient id="bg" cx="0.5" cy="0.45" r="0.75"><stop stop-color="#111B2E"/><stop offset="1" stop-color="#05070D"/></radialGradient><filter id="blur30" x="-50%" y="-50%" width="200%" height="200%"><feGaussianBlur stdDeviation="30"/></filter><filter id="blur12" x="-50%" y="-50%" width="200%" height="200%"><feGaussianBlur stdDeviation="12"/></filter><linearGradient id="shellY" x1="0" y1="0" x2="0" y2="1"><stop stop-color="#1A2436"/><stop offset="1" stop-color="#0E1522"/></linearGradient><linearGradient id="shellX" x1="0" y1="0" x2="0" y2="1"><stop stop-color="#121A28"/><stop offset="1" stop-color="#090E17"/></linearGradient><linearGradient id="lid" x1="0" y1="0" x2="1" y2="1"><stop stop-color="#2A3650"/><stop offset="1" stop-color="#1A2336"/></linearGradient><radialGradient id="gridfade" cx="0.5" cy="0.62" r="0.45"><stop stop-color="#fff"/><stop offset="1" stop-color="#fff" stop-opacity="0"/></radialGradient><mask id="gm"><rect width="1200" height="1000" fill="url(#gridfade)"/></mask><clipPath id="clipY"><rect width="444.0" height="300.0" rx="10"/></clipPath><pattern id="ledY" width="5" height="5" patternUnits="userSpaceOnUse"><rect width="5" height="5" fill="#000" fill-opacity="0.22"/><circle cx="2.5" cy="2.5" r="1.9" fill="#000" fill-opacity="0"/><rect x="0.6" y="0.6" width="3.8" height="3.8" rx="1.2" fill="#fff" fill-opacity="0.05"/></pattern><linearGradient id="sheenY" x1="0" y1="0" x2="1" y2="0"><stop stop-color="#fff" stop-opacity="0"/><stop offset="0.5" stop-color="#fff" stop-opacity="0.22"/><stop offset="1" stop-color="#fff" stop-opacity="0"/></linearGradient><linearGradient id="adbgY_0" x1="0" y1="0" x2="443.99999999999994" y2="300.00000000000006" gradientUnits="userSpaceOnUse"><stop stop-color="#063B2A"/><stop offset="1" stop-color="#16A34A"/></linearGradient><clipPath id="clipX"><rect width="344.0" height="300.0" rx="10"/></clipPath><pattern id="ledX" width="5" height="5" patternUnits="userSpaceOnUse"><rect width="5" height="5" fill="#000" fill-opacity="0.22"/><circle cx="2.5" cy="2.5" r="1.9" fill="#000" fill-opacity="0"/><rect x="0.6" y="0.6" width="3.8" height="3.8" rx="1.2" fill="#fff" fill-opacity="0.05"/></pattern><linearGradient id="sheenX" x1="0" y1="0" x2="1" y2="0"><stop stop-color="#fff" stop-opacity="0"/><stop offset="0.5" stop-color="#fff" stop-opacity="0.22"/><stop offset="1" stop-color="#fff" stop-opacity="0"/></linearGradient><linearGradient id="adbgX_0" x1="0" y1="0" x2="344.0" y2="300.00000000000006" gradientUnits="userSpaceOnUse"><stop stop-color="#063B2A"/><stop offset="1" stop-color="#16A34A"/></linearGradient></defs><rect width="1200" height="1000" fill="url(#bg)"/><path d="M585.0 -394.0L-1233.7 656.0M585.0 -394.0L2403.7 656.0M714.9 -319.0L-1103.7 731.0M455.1 -319.0L2273.7 731.0M844.8 -244.0L-973.8 806.0M325.2 -244.0L2143.8 806.0M974.7 -169.0L-843.9 881.0M195.3 -169.0L2013.9 881.0M1104.6 -94.0L-714.0 956.0M65.4 -94.0L1884.0 956.0M1234.5 -19.0L-584.1 1031.0M-64.5 -19.0L1754.1 1031.0M1364.4 56.0L-454.2 1106.0M-194.4 56.0L1624.2 1106.0M1494.3 131.0L-324.3 1181.0M-324.3 131.0L1494.3 1181.0M1624.2 206.0L-194.4 1256.0M-454.2 206.0L1364.4 1256.0M1754.1 281.0L-64.5 1331.0M-584.1 281.0L1234.5 1331.0M1884.0 356.0L65.4 1406.0M-714.0 356.0L1104.6 1406.0M2013.9 431.0L195.3 1481.0M-843.9 431.0L974.7 1481.0M2143.8 506.0L325.2 1556.0M-973.8 506.0L844.8 1556.0M2273.7 581.0L455.1 1631.0M-1103.7 581.0L714.9 1631.0" stroke="#2A3A55" stroke-opacity="0.45" stroke-width="1" mask="url(#gm)"/><ellipse cx="617.5" cy="749.8" rx="360" ry="170" fill="#22C55E" fill-opacity="0.22" filter="url(#blur30)"></ellipse><ellipse cx="625.5" cy="680.8" rx="250" ry="120" fill="#000" fill-opacity="0.6" filter="url(#blur12)"></ellipse><g id="delivery-box"><path d="M403.1 656.0 650.0 798.5 650.0 783.5 403.1 641.0Z" fill="#141A25"/><path d="M831.8 693.5 650.0 798.5 650.0 783.5 831.8 678.5Z" fill="#1B2230"/><path d="M585.0 536.0 831.8 678.5 650.0 783.5 403.1 641.0Z" fill="#2B3446"/><path d="M546.0 588.5 572.0 603.5 572.0 582.5 546.0 567.5Z" fill="#1B2230"/><path d="M598.0 588.5 572.0 603.5 572.0 582.5 598.0 567.5Z" fill="#232C3C"/><path d="M572.0 552.5 598.0 567.5 572.0 582.5 546.0 567.5Z" fill="#3B4659"/><path d="M714.9 686.0 740.9 701.0 740.9 680.0 714.9 665.0Z" fill="#1B2230"/><path d="M766.9 686.0 740.9 701.0 740.9 680.0 766.9 665.0Z" fill="#232C3C"/><path d="M740.9 650.0 766.9 665.0 740.9 680.0 714.9 665.0Z" fill="#3B4659"/><path d="M468.1 633.5 494.1 648.5 494.1 627.5 468.1 612.5Z" fill="#1B2230"/><path d="M520.0 633.5 494.1 648.5 494.1 627.5 520.0 612.5Z" fill="#232C3C"/><path d="M494.1 597.5 520.0 612.5 494.1 627.5 468.1 612.5Z" fill="#3B4659"/><path d="M637.0 731.0 662.9 746.0 662.9 725.0 637.0 710.0Z" fill="#1B2230"/><path d="M688.9 731.0 662.9 746.0 662.9 725.0 688.9 710.0Z" fill="#232C3C"/><path d="M662.9 695.0 688.9 710.0 662.9 725.0 637.0 710.0Z" fill="#3B4659"/><path d="M314.8 620.0 650.0 813.5 650.0 798.5 314.8 605.0Z" fill="#0B1019"/><path d="M920.2 657.5 650.0 813.5 650.0 798.5 920.2 642.5Z" fill="#0F1520"/><path d="M585.0 449.0 920.2 642.5 650.0 798.5 314.8 605.0Z" fill="#1F2838"/><path d="M325.2 605.0 650.0 792.5 650.0 492.5 325.2 305.0Z" fill="url(#shellY)" stroke="#060A12" stroke-width="1.2" stroke-linejoin="round"/><path d="M909.8 642.5 650.0 792.5 650.0 492.5 909.8 342.5Z" fill="url(#shellX)" stroke="#060A12" stroke-width="1.2" stroke-linejoin="round"/><path d="M585.0 155.0 909.8 342.5 650.0 492.5 325.2 305.0Z" fill="#1A2336" stroke="#060A12" stroke-width="1.2" stroke-linejoin="round"/><g transform="matrix(0.64952 0.37500 0.00000 0.75000 343.38 342.50)"><rect x="-6" y="-6" width="456.0" height="312.0" rx="14" fill="#05070C"/><g clip-path="url(#clipY)"><rect width="443.99999999999994" height="300.00000000000006" fill="url(#adbgY_0)"/><circle cx="408.47999999999996" cy="30.000000000000007" r="126.00000000000001" fill="#FFFFFF" fill-opacity="0.07"/><circle cx="44.4" cy="315.00000000000006" r="105.00000000000001" fill="#000" fill-opacity="0.12"/><rect x="31.08" y="30.000000000000007" width="30.000000000000007" height="30.000000000000007" rx="7.500000000000002" fill="#FFFFFF"/><text x="73.08000000000001" y="54.00000000000001" font-family="Plus Jakarta Sans, Inter, Segoe UI, Arial, sans-serif" font-size="19.5" font-weight="800" fill="#FFFFFF">FreshCart</text><g transform="translate(355.2 81.00000000000001)"><circle cx="-18.900000000000006" cy="-14.700000000000005" r="15.960000000000006" fill="#F97316"/><circle cx="8.400000000000004" cy="-21.000000000000007" r="14.280000000000006" fill="#EF4444"/><path d="M23.10000000000001 -39.90000000000001 q12.600000000000003 8.400000000000004 2.100000000000001 23.10000000000001" stroke="#22C55E" stroke-width="6.720000000000002" fill="none" stroke-linecap="round"/><path d="M-44.100000000000016 -4.200000000000002H44.100000000000016L33.600000000000016 39.90000000000001H-33.600000000000016Z" fill="#FDE68A"/><path d="M-25.200000000000006 8.400000000000004V29.40000000000001M-8.400000000000004 8.400000000000004V29.40000000000001M8.400000000000004 8.400000000000004V29.40000000000001M25.200000000000006 8.400000000000004V29.40000000000001" stroke="#D97706" stroke-width="3.360000000000001" stroke-linecap="round"/></g><text x="31.08" y="138.00000000000003" font-family="Plus Jakarta Sans, Inter, Segoe UI, Arial, sans-serif" font-size="36.0" font-weight="800" fill="#FFFFFF" letter-spacing="-0.5">Groceries</text><text x="31.08" y="179.40000000000003" font-family="Plus Jakarta Sans, Inter, Segoe UI, Arial, sans-serif" font-size="36.0" font-weight="800" fill="#BBF7D0" letter-spacing="-0.5">in 30 minutes</text><text x="31.08" y="211.80000000000004" font-family="Plus Jakarta Sans, Inter, Segoe UI, Arial, sans-serif" font-size="15.6" fill="#FFFFFF" fill-opacity="0.85">Fresh food to your door</text><rect x="31.08" y="240.00000000000006" width="132.0" height="33.00000000000001" rx="16.500000000000004" fill="#FFFFFF"></rect><text x="97.1" y="261.90000000000003" text-anchor="middle" font-family="Plus Jakarta Sans, Inter, Segoe UI, Arial, sans-serif" font-size="15.0" font-weight="800" fill="#063B2A">Shop now →</text><rect x="0" y="294.0" width="444.0" height="6" fill="#000" fill-opacity="0.35"/><rect x="0" y="294.0" width="186.5" height="6" fill="#FFFFFF" fill-opacity="0.85"/><rect x="155" y="-20" width="200" height="340" fill="url(#sheenY)" transform="skewX(-18)"/><rect width="444.0" height="300.0" fill="url(#ledY)"/><g transform="translate(386.0 14)"><rect width="44" height="20" rx="10" fill="#000" fill-opacity="0.45"/><circle cx="11" cy="10" r="3.5" fill="#FF3B5C"></circle><text x="18" y="14" font-family="Plus Jakarta Sans, Inter, Segoe UI, Arial, sans-serif" font-size="10" font-weight="800" fill="#fff">AD</text></g></g><rect width="444.0" height="300.0" rx="10" fill="none" stroke="#FFFFFF" stroke-opacity="0.08" stroke-width="2"/></g><g transform="matrix(0.64952 -0.37500 0.00000 0.75000 668.14 509.00)"><rect x="-6" y="-6" width="356.0" height="312.0" rx="14" fill="#05070C"/><g clip-path="url(#clipX)"><rect width="344.0" height="300.00000000000006" fill="url(#adbgX_0)"/><circle cx="316.48" cy="30.000000000000007" r="126.00000000000001" fill="#FFFFFF" fill-opacity="0.07"/><circle cx="34.4" cy="315.00000000000006" r="105.00000000000001" fill="#000" fill-opacity="0.12"/><rect x="24.080000000000002" y="30.000000000000007" width="30.000000000000007" height="30.000000000000007" rx="7.500000000000002" fill="#FFFFFF"/><text x="66.08000000000001" y="54.00000000000001" font-family="Plus Jakarta Sans, Inter, Segoe UI, Arial, sans-serif" font-size="19.5" font-weight="800" fill="#FFFFFF">FreshCart</text><g transform="translate(275.2 81.00000000000001)"><circle cx="-18.900000000000006" cy="-14.700000000000005" r="15.960000000000006" fill="#F97316"/><circle cx="8.400000000000004" cy="-21.000000000000007" r="14.280000000000006" fill="#EF4444"/><path d="M23.10000000000001 -39.90000000000001 q12.600000000000003 8.400000000000004 2.100000000000001 23.10000000000001" stroke="#22C55E" stroke-width="6.720000000000002" fill="none" stroke-linecap="round"/><path d="M-44.100000000000016 -4.200000000000002H44.100000000000016L33.600000000000016 39.90000000000001H-33.600000000000016Z" fill="#FDE68A"/><path d="M-25.200000000000006 8.400000000000004V29.40000000000001M-8.400000000000004 8.400000000000004V29.40000000000001M8.400000000000004 8.400000000000004V29.40000000000001M25.200000000000006 8.400000000000004V29.40000000000001" stroke="#D97706" stroke-width="3.360000000000001" stroke-linecap="round"/></g><text x="24.080000000000002" y="138.00000000000003" font-family="Plus Jakarta Sans, Inter, Segoe UI, Arial, sans-serif" font-size="29.6" font-weight="800" fill="#FFFFFF" letter-spacing="-0.5">Groceries</text><text x="24.080000000000002" y="172.02160000000003" font-family="Plus Jakarta Sans, Inter, Segoe UI, Arial, sans-serif" font-size="29.6" font-weight="800" fill="#BBF7D0" letter-spacing="-0.5">in 30 minutes</text><text x="24.080000000000002" y="198.6472" font-family="Plus Jakarta Sans, Inter, Segoe UI, Arial, sans-serif" font-size="15.6" fill="#FFFFFF" fill-opacity="0.85">Fresh food to your door</text><rect x="24.080000000000002" y="240.00000000000006" width="132.0" height="33.00000000000001" rx="16.500000000000004" fill="#FFFFFF"></rect><text x="90.1" y="261.90000000000003" text-anchor="middle" font-family="Plus Jakarta Sans, Inter, Segoe UI, Arial, sans-serif" font-size="15.0" font-weight="800" fill="#063B2A">Shop now →</text><rect x="0" y="294.0" width="344.0" height="6" fill="#000" fill-opacity="0.35"/><rect x="0" y="294.0" width="144.5" height="6" fill="#FFFFFF" fill-opacity="0.85"/><rect x="120" y="-20" width="155" height="340" fill="url(#sheenX)" transform="skewX(-18)"/><rect width="344.0" height="300.0" fill="url(#ledX)"/><g transform="translate(286.0 14)"><rect width="44" height="20" rx="10" fill="#000" fill-opacity="0.45"/><circle cx="11" cy="10" r="3.5" fill="#FF3B5C"></circle><text x="18" y="14" font-family="Plus Jakarta Sans, Inter, Segoe UI, Arial, sans-serif" font-size="10" font-weight="800" fill="#fff">AD</text></g><rect width="344.0" height="300.0" fill="#000" fill-opacity="0.12"/></g><rect width="344.0" height="300.0" rx="10" fill="none" stroke="#FFFFFF" stroke-opacity="0.08" stroke-width="2"/></g><text transform="matrix(0.8660 0.5000 0 1 343.4 603.5)" font-family="Plus Jakarta Sans, Inter, Segoe UI, Arial, sans-serif" font-size="17" font-weight="800" letter-spacing="1" fill="#5B6B85">adbox</text><path d="M546.0 723.5L546.0 708.5" stroke="#05080F" stroke-width="3" stroke-linecap="round"/><path d="M559.0 731.0L559.0 716.0" stroke="#05080F" stroke-width="3" stroke-linecap="round"/><path d="M572.0 738.5L572.0 723.5" stroke="#05080F" stroke-width="3" stroke-linecap="round"/><path d="M585.0 746.0L585.0 731.0" stroke="#05080F" stroke-width="3" stroke-linecap="round"/><path d="M598.0 753.5L598.0 738.5" stroke="#05080F" stroke-width="3" stroke-linecap="round"/><path d="M611.0 761.0L611.0 746.0" stroke="#05080F" stroke-width="3" stroke-linecap="round"/><path d="M878.6 651.5L878.6 636.5" stroke="#05080F" stroke-width="3" stroke-linecap="round"/><path d="M865.6 659.0L865.6 644.0" stroke="#05080F" stroke-width="3" stroke-linecap="round"/><path d="M852.6 666.5L852.6 651.5" stroke="#05080F" stroke-width="3" stroke-linecap="round"/><path d="M839.6 674.0L839.6 659.0" stroke="#05080F" stroke-width="3" stroke-linecap="round"/><path d="M826.6 681.5L826.6 666.5" stroke="#05080F" stroke-width="3" stroke-linecap="round"/><path d="M637.7 789.1 650.0 796.1 650.0 496.1 637.7 489.1Z" fill="#262F40"/><path d="M662.2 789.0 650.0 796.1 650.0 496.1 662.2 489.0Z" fill="#2E384B"/><path d="M650.0 482.0 662.2 489.0 650.0 496.1 637.7 489.1Z" fill="#3B4659"/><path d="M319.0 605.0 331.2 612.0 331.2 312.0 319.0 305.0Z" fill="#262F40"/><path d="M343.4 605.0 331.2 612.0 331.2 312.0 343.4 305.0Z" fill="#2E384B"/><path d="M331.2 298.0 343.4 305.0 331.2 312.0 319.0 305.0Z" fill="#3B4659"/><path d="M891.6 642.5 903.8 649.5 903.8 349.5 891.6 342.5Z" fill="#262F40"/><path d="M916.0 642.5 903.8 649.5 903.8 349.5 916.0 342.5Z" fill="#2E384B"/><path d="M903.8 335.5 916.0 342.5 903.8 349.5 891.6 342.5Z" fill="#3B4659"/><path d="M650.0 793.1L650.0 496.1" stroke="#8FA3C2" stroke-opacity="0.5" stroke-width="1.5"/><circle cx="333.0" cy="339.5" r="2.6" fill="#4B5870"/><circle cx="634.4" cy="513.5" r="2.6" fill="#4B5870"/><circle cx="333.0" cy="594.5" r="2.6" fill="#4B5870"/><circle cx="665.5" cy="513.5" r="2.6" fill="#4B5870"/><circle cx="899.4" cy="378.5" r="2.6" fill="#4B5870"/><circle cx="899.4" cy="633.5" r="2.6" fill="#4B5870"/><path d="M309.6 305.0 650.0 501.5 650.0 480.5 309.6 284.0Z" fill="#141C2B" stroke="#060A12" stroke-width="1.2" stroke-linejoin="round"/><path d="M925.3 342.5 650.0 501.5 650.0 480.5 925.3 321.5Z" fill="#101724" stroke="#060A12" stroke-width="1.2" stroke-linejoin="round"/><path d="M585.0 125.0 925.3 321.5 650.0 480.5 309.6 284.0Z" fill="url(#lid)" stroke="#060A12" stroke-width="1.2" stroke-linejoin="round"/><path d="M585.0 158.0 868.2 321.5 650.0 447.5 366.8 284.0Z" fill="#000" fill-opacity="0.18" stroke="#3B4A66" stroke-opacity="0.5"/><path d="M309.6 284.0L650.0 480.5L925.3 321.5" stroke="#9FB3D1" stroke-opacity="0.45" stroke-width="1.5" fill="none"/><path d="M356.1 321.6L602.9 464.2" stroke="#22C55E" stroke-width="3" stroke-linecap="round"></path><text transform="matrix(0.8660 0.5000 -0.8660 0.5000 501.9 272.0)" font-family="Plus Jakarta Sans, Inter, Segoe UI, Arial, sans-serif" font-size="40" font-weight="800" letter-spacing="2" fill="#4E5E7B" fill-opacity="0.9">adbox</text><path d="M756.5 350.0 772.1 359.0 772.1 341.0 756.5 332.0Z" fill="#1B2230"/><path d="M787.6 350.0 772.1 359.0 772.1 341.0 787.6 332.0Z" fill="#262F40"/><path d="M772.1 323.0 787.6 332.0 772.1 341.0 756.5 332.0Z" fill="#3B4659"/><path d="M683.7 392.0 699.3 401.0 699.3 383.0 683.7 374.0Z" fill="#1B2230"/><path d="M714.9 392.0 699.3 401.0 699.3 383.0 714.9 374.0Z" fill="#262F40"/><path d="M699.3 365.0 714.9 374.0 699.3 383.0 683.7 374.0Z" fill="#3B4659"/><path d="M683.7 374.0 699.3 383.0 699.3 374.0 683.7 365.0Z" fill="#1F2735"/><path d="M787.6 332.0 699.3 383.0 699.3 374.0 787.6 323.0Z" fill="#2C3648"/><path d="M772.1 314.0 787.6 323.0 699.3 374.0 683.7 365.0Z" fill="#56647D"/><ellipse cx="779.9" cy="431.0" rx="7" ry="5" fill="#0B0F16" stroke="#4B5870"/><circle cx="779.9" cy="431.0" r="2.2" fill="#38BDF8"/></g><path d="M360 116 C420 116 356.1 367.5 416.1 447.5" stroke="#FF3B5C" stroke-opacity="0.5" stroke-dasharray="4 4" fill="none"/><circle cx="416.1" cy="447.5" r="4" fill="#FF3B5C"/><path d="M860 170 C820 170 891.8 422.5 831.8 462.5" stroke="#94A3B8" stroke-opacity="0.45" stroke-dasharray="4 4" fill="none"/><circle cx="831.8" cy="462.5" r="4" fill="#CBD5E1"/><g transform="translate(60 70)"><rect width="300" height="92" rx="16" fill="#0B111C" fill-opacity="0.92" stroke="#243047"/><circle cx="26" cy="30" r="6" fill="#FF3B5C" fill-opacity="0.35"></circle><circle cx="26" cy="30" r="4" fill="#FF3B5C"/><text x="40" y="34" font-family="Plus Jakarta Sans, Inter, Segoe UI, Arial, sans-serif" font-size="12" font-weight="800" letter-spacing="1.2" fill="#FF6B84">NOW PLAYING</text><text x="20" y="66" font-family="Plus Jakarta Sans, Inter, Segoe UI, Arial, sans-serif" font-size="22" font-weight="800" fill="#F1F5F9">FreshCart</text><text x="280" y="66" text-anchor="end" font-family="Plus Jakarta Sans, Inter, Segoe UI, Arial, sans-serif" font-size="12" fill="#8392A8">Groceries · 5s spot</text></g><g transform="translate(860 110)"><rect width="290" height="120" rx="16" fill="#0B111C" fill-opacity="0.92" stroke="#243047"/><text x="20" y="32" font-family="Plus Jakarta Sans, Inter, Segoe UI, Arial, sans-serif" font-size="12" fill="#8392A8">Views this hour</text><text x="20" y="64" font-family="Plus Jakarta Sans, Inter, Segoe UI, Arial, sans-serif" font-size="28" font-weight="800" fill="#F1F5F9">3,482</text><text x="150" y="64" font-family="Plus Jakarta Sans, Inter, Segoe UI, Arial, sans-serif" font-size="12" font-weight="700" fill="#2EE6A6">▲ 18%</text><text x="20" y="96" font-family="Plus Jakarta Sans, Inter, Segoe UI, Arial, sans-serif" font-size="12" fill="#8392A8">Location</text><text x="270" y="96" text-anchor="end" font-family="Plus Jakarta Sans, Inter, Segoe UI, Arial, sans-serif" font-size="12" font-weight="700" fill="#CBD5E1">Allen Avenue, Ikeja</text></g><g transform="translate(870 800)"><rect width="270" height="96" rx="16" fill="#0B111C" fill-opacity="0.92" stroke="#243047"/><text x="20" y="32" font-family="Plus Jakarta Sans, Inter, Segoe UI, Arial, sans-serif" font-size="12" fill="#8392A8">Screens</text><text x="250" y="32" text-anchor="end" font-family="Plus Jakarta Sans, Inter, Segoe UI, Arial, sans-serif" font-size="12" font-weight="700" fill="#2EE6A6">3 of 3 online</text><rect x="20" y="48" width="70" height="30" rx="8" fill="#111A29" stroke="#243047"/><circle cx="34" cy="63" r="4" fill="#2EE6A6"/><text x="44" y="67" font-family="Plus Jakarta Sans, Inter, Segoe UI, Arial, sans-serif" font-size="11" font-weight="700" fill="#CBD5E1">Left</text><rect x="100" y="48" width="70" height="30" rx="8" fill="#111A29" stroke="#243047"/><circle cx="114" cy="63" r="4" fill="#2EE6A6"/><text x="124" y="67" font-family="Plus Jakarta Sans, Inter, Segoe UI, Arial, sans-serif" font-size="11" font-weight="700" fill="#CBD5E1">Right</text><rect x="180" y="48" width="70" height="30" rx="8" fill="#111A29" stroke="#243047"/><circle cx="194" cy="63" r="4" fill="#2EE6A6"/><text x="204" y="67" font-family="Plus Jakarta Sans, Inter, Segoe UI, Arial, sans-serif" font-size="11" font-weight="700" fill="#CBD5E1">Rear</text></g></svg>